<svg width="25" height="25" viewBox="0 0 25 25" fill="none" xmlns="http://www.w3.org/2000/svg">
<g clip-path="url(#clip0_2535_664)">
<path d="M3.08325 4.16683C3.08325 3.56852 3.56828 3.0835 4.16659 3.0835V1.0835C2.46371 1.0835 1.08325 2.46395 1.08325 4.16683H3.08325ZM3.08325 8.3335V4.16683H1.08325V8.3335H3.08325ZM4.16659 9.41683C3.56828 9.41683 3.08325 8.9318 3.08325 8.3335H1.08325C1.08325 10.0364 2.46371 11.4168 4.16659 11.4168V9.41683ZM8.33325 9.41683H4.16659V11.4168H8.33325V9.41683ZM9.41659 8.3335C9.41659 8.9318 8.93156 9.41683 8.33325 9.41683V11.4168C10.0361 11.4168 11.4166 10.0364 11.4166 8.3335H9.41659ZM9.41659 4.16683V8.3335H11.4166V4.16683H9.41659ZM8.33325 3.0835C8.93156 3.0835 9.41659 3.56852 9.41659 4.16683H11.4166C11.4166 2.46395 10.0361 1.0835 8.33325 1.0835V3.0835ZM4.16659 3.0835H8.33325V1.0835H4.16659V3.0835ZM21.9166 6.25016C21.9166 7.99906 20.4988 9.41683 18.7499 9.41683V11.4168C21.6034 11.4168 23.9166 9.10363 23.9166 6.25016H21.9166ZM18.7499 3.0835C20.4988 3.0835 21.9166 4.50126 21.9166 6.25016H23.9166C23.9166 3.39669 21.6034 1.0835 18.7499 1.0835V3.0835ZM15.5833 6.25016C15.5833 4.50126 17.001 3.0835 18.7499 3.0835V1.0835C15.8964 1.0835 13.5833 3.39669 13.5833 6.25016H15.5833ZM18.7499 9.41683C17.001 9.41683 15.5833 7.99906 15.5833 6.25016H13.5833C13.5833 9.10363 15.8964 11.4168 18.7499 11.4168V9.41683ZM6.24992 23.9168C9.10339 23.9168 11.4166 21.6036 11.4166 18.7502H9.41659C9.41659 20.4991 7.99882 21.9168 6.24992 21.9168V23.9168ZM1.08325 18.7502C1.08325 21.6036 3.39645 23.9168 6.24992 23.9168V21.9168C4.50102 21.9168 3.08325 20.4991 3.08325 18.7502H1.08325ZM6.24992 13.5835C3.39645 13.5835 1.08325 15.8967 1.08325 18.7502H3.08325C3.08325 17.0013 4.50102 15.5835 6.24992 15.5835V13.5835ZM11.4166 18.7502C11.4166 15.8967 9.10339 13.5835 6.24992 13.5835V15.5835C7.99882 15.5835 9.41659 17.0013 9.41659 18.7502H11.4166ZM15.5833 16.6668C15.5833 16.0685 16.0683 15.5835 16.6666 15.5835V13.5835C14.9637 13.5835 13.5833 14.964 13.5833 16.6668H15.5833ZM15.5833 20.8335V16.6668H13.5833V20.8335H15.5833ZM16.6666 21.9168C16.0683 21.9168 15.5833 21.4318 15.5833 20.8335H13.5833C13.5833 22.5364 14.9637 23.9168 16.6666 23.9168V21.9168ZM20.8333 21.9168H16.6666V23.9168H20.8333V21.9168ZM21.9166 20.8335C21.9166 21.4318 21.4316 21.9168 20.8333 21.9168V23.9168C22.5361 23.9168 23.9166 22.5364 23.9166 20.8335H21.9166ZM21.9166 16.6668V20.8335H23.9166V16.6668H21.9166ZM20.8333 15.5835C21.4316 15.5835 21.9166 16.0685 21.9166 16.6668H23.9166C23.9166 14.964 22.5361 13.5835 20.8333 13.5835V15.5835ZM16.6666 15.5835H20.8333V13.5835H16.6666V15.5835Z" fill="#16151C"/>
</g>
<defs>
<clipPath id="clip0_2535_664">
<rect width="25" height="25" fill="white"/>
</clipPath>
</defs>
</svg>
