<svg width="25" height="25" viewBox="0 0 25 25" fill="none" xmlns="http://www.w3.org/2000/svg">
<g clip-path="url(#clip0_2536_675)">
<path fill-rule="evenodd" clip-rule="evenodd" d="M4.16659 2.0835C3.01599 2.0835 2.08325 3.01624 2.08325 4.16683V8.3335C2.08325 9.48409 3.01599 10.4168 4.16659 10.4168H8.33325C9.48385 10.4168 10.4166 9.48409 10.4166 8.3335V4.16683C10.4166 3.01624 9.48385 2.0835 8.33325 2.0835H4.16659ZM18.7499 10.4168C21.0511 10.4168 22.9166 8.55135 22.9166 6.25016C22.9166 3.94898 21.0511 2.0835 18.7499 2.0835C16.4487 2.0835 14.5833 3.94898 14.5833 6.25016C14.5833 8.55135 16.4487 10.4168 18.7499 10.4168ZM10.4166 18.7502C10.4166 21.0513 8.55111 22.9168 6.24992 22.9168C3.94873 22.9168 2.08325 21.0513 2.08325 18.7502C2.08325 16.449 3.94873 14.5835 6.24992 14.5835C8.55111 14.5835 10.4166 16.449 10.4166 18.7502ZM16.6666 14.5835C15.516 14.5835 14.5833 15.5162 14.5833 16.6668V20.8335C14.5833 21.9841 15.516 22.9168 16.6666 22.9168H20.8333C21.9838 22.9168 22.9166 21.9841 22.9166 20.8335V16.6668C22.9166 15.5162 21.9838 14.5835 20.8333 14.5835H16.6666Z" fill="#5025FA"/>
</g>
<defs>
<clipPath id="clip0_2536_675">
<rect width="25" height="25" fill="white"/>
</clipPath>
</defs>
</svg>
