<svg width="25" height="25" viewBox="0 0 25 25" fill="none" xmlns="http://www.w3.org/2000/svg">
<g clip-path="url(#clip0_2539_5919)">
<path d="M22.9062 8.33333C22.9062 7.58333 22.5208 6.92708 21.927 6.5625L13.552 1.65625C12.9062 1.27083 12.0937 1.27083 11.4478 1.65625L3.07284 6.5625C2.47909 6.92708 2.08325 7.58333 2.08325 8.33333V18.75C2.08325 19.8958 3.02075 20.8333 4.16659 20.8333H20.8333C21.9791 20.8333 22.9166 19.8958 22.9166 18.75L22.9062 8.33333ZM11.3958 12.8542L3.89575 8.16667L11.4478 3.73958C12.0937 3.35417 12.9062 3.35417 13.552 3.73958L21.1041 8.16667L13.6041 12.8542C12.927 13.2708 12.0728 13.2708 11.3958 12.8542Z" fill="#5025FA"/>
</g>
<defs>
<clipPath id="clip0_2539_5919">
<rect width="25" height="25" fill="white"/>
</clipPath>
</defs>
</svg>
