<svg width="25" height="25" viewBox="0 0 25 25" fill="none" xmlns="http://www.w3.org/2000/svg">
<g clip-path="url(#clip0_2610_7328)">
<path d="M4.62496 5.75H20.375C20.9937 5.75 21.5 5.24375 21.5 4.625C21.5 4.00625 20.9937 3.5 20.375 3.5H4.62496C4.00621 3.5 3.49996 4.00625 3.49996 4.625C3.49996 5.24375 4.00621 5.75 4.62496 5.75ZM21.68 7.775C21.5787 7.2575 21.1175 6.875 20.5775 6.875H4.42246C3.88246 6.875 3.42121 7.2575 3.31996 7.775L2.19496 13.4C2.05996 14.0975 2.58871 14.75 3.29746 14.75H3.49996V20.375C3.49996 20.9938 4.00621 21.5 4.62496 21.5H13.625C14.2437 21.5 14.75 20.9938 14.75 20.375V14.75H19.25V20.375C19.25 20.9938 19.7562 21.5 20.375 21.5C20.9937 21.5 21.5 20.9938 21.5 20.375V14.75H21.7025C22.4112 14.75 22.94 14.0975 22.805 13.4L21.68 7.775V7.775ZM12.5 19.25H5.74996V14.75H12.5V19.25Z" fill="#5025FA"/>
</g>
<defs>
<clipPath id="clip0_2610_7328">
<rect width="25" height="25" fill="white"/>
</clipPath>
</defs>
</svg>
