<svg width="25" height="25" viewBox="0 0 25 25" fill="none" xmlns="http://www.w3.org/2000/svg">
<g clip-path="url(#clip0_2610_7325)">
<path d="M3.90831 7.89267L3.90831 7.89267L3.9088 7.89021C3.95457 7.65624 4.16745 7.475 4.42246 7.475H20.5775C20.8325 7.475 21.0453 7.65624 21.0911 7.89021L21.68 7.775L21.0916 7.89267L22.2159 13.514C22.216 13.5145 22.2161 13.515 22.2162 13.5156C22.2799 13.8499 22.0258 14.15 21.7025 14.15H21.5H20.9V14.75V20.375C20.9 20.6624 20.6623 20.9 20.375 20.9C20.0876 20.9 19.85 20.6624 19.85 20.375V14.75V14.15H19.25H14.75H14.15V14.75V20.375C14.15 20.6624 13.9123 20.9 13.625 20.9H4.62496C4.33758 20.9 4.09996 20.6624 4.09996 20.375V14.75V14.15H3.49996H3.29746C2.9741 14.15 2.71996 13.8499 2.78374 13.5155C2.78384 13.515 2.78393 13.5145 2.78403 13.514L3.90831 7.89267ZM12.5 19.85H13.1V19.25V14.75V14.15H12.5H5.74996H5.14996V14.75V19.25V19.85H5.74996H12.5ZM20.375 5.15H4.62496C4.33758 5.15 4.09996 4.91238 4.09996 4.625C4.09996 4.33762 4.33758 4.1 4.62496 4.1H20.375C20.6623 4.1 20.9 4.33762 20.9 4.625C20.9 4.91238 20.6623 5.15 20.375 5.15Z" stroke="#16151C" stroke-width="1.2"/>
</g>
<defs>
<clipPath id="clip0_2610_7325">
<rect width="25" height="25" fill="white"/>
</clipPath>
</defs>
</svg>
