<svg width="25" height="25" viewBox="0 0 25 25" fill="none" xmlns="http://www.w3.org/2000/svg">
<g clip-path="url(#clip0_2613_5857)">
<path d="M11.9792 2.0835C7.09375 2.0835 3.125 6.05225 3.125 10.9377C3.125 15.8231 7.09375 19.7918 11.9792 19.7918H12.5V22.9168C17.5625 20.4793 20.8333 15.6252 20.8333 10.9377C20.8333 6.05225 16.8646 2.0835 11.9792 2.0835ZM13.0208 17.1877H10.9375V15.1043H13.0208V17.1877ZM13.4375 12.2085C13.4271 12.2189 13.4167 12.2397 13.4063 12.2606C13.3542 12.3439 13.3021 12.4272 13.2604 12.5106C13.2396 12.5418 13.2292 12.5835 13.2188 12.6252C13.1875 12.6981 13.1563 12.771 13.1354 12.8439C13.0625 13.0627 13.0313 13.2918 13.0313 13.5522H10.9375C10.9375 13.021 11.0208 12.5731 11.1458 12.1981C11.1458 12.1877 11.1458 12.1772 11.1563 12.1668C11.1667 12.1252 11.1979 12.1043 11.2083 12.0627C11.2708 11.896 11.3438 11.7502 11.4375 11.6043C11.4688 11.5522 11.5104 11.5002 11.5417 11.4481C11.5729 11.4064 11.5938 11.3543 11.625 11.3231L11.6354 11.3335C12.5104 10.1877 13.9375 9.8335 14.0521 8.54183C14.1458 7.521 13.4167 6.53141 12.4167 6.32308C11.3333 6.09391 10.3542 6.72933 10.0208 7.65641C9.875 8.03141 9.53125 8.3335 9.10417 8.3335H8.89583C8.27083 8.3335 7.8125 7.71891 7.98958 7.11475C8.28146 6.15685 8.90839 5.33603 9.75573 4.80238C10.6031 4.26873 11.6142 4.05792 12.6042 4.2085C14.3646 4.46891 15.7708 5.91683 16.0729 7.67725C16.5313 10.2189 14.375 10.8335 13.4375 12.2085V12.2085Z" fill="#5025FA"/>
</g>
<defs>
<clipPath id="clip0_2613_5857">
<rect width="25" height="25" fill="white"/>
</clipPath>
</defs>
</svg>
