<svg width="25" height="25" viewBox="0 0 25 25" fill="none" xmlns="http://www.w3.org/2000/svg">
<g clip-path="url(#clip0_2613_5860)">
<path d="M13.05 19.7918V19.2418H12.5H11.9792C7.39751 19.2418 3.675 15.5193 3.675 10.9377C3.675 6.356 7.39751 2.6335 11.9792 2.6335C16.5608 2.6335 20.2833 6.356 20.2833 10.9377C20.2833 15.1355 17.4992 19.5478 13.05 22.0134V19.7918ZM13.0208 17.7377H13.5708V17.1877V15.1043V14.5543H13.0208H10.9375H10.3875V15.1043V17.1877V17.7377H10.9375H13.0208ZM13.8727 12.5521L13.8865 12.5299L13.8933 12.5163C14.0867 12.2333 14.3524 11.9755 14.6748 11.6888C14.7368 11.6336 14.8016 11.5769 14.8681 11.5186C15.1319 11.2874 15.4234 11.032 15.6812 10.7552C16.0125 10.3993 16.32 9.97717 16.5056 9.44539C16.6925 8.90994 16.7435 8.29862 16.6146 7.58189C16.274 5.60281 14.694 3.96217 12.6857 3.66458C11.5655 3.49447 10.4214 3.73314 9.46263 4.33699C8.5035 4.94104 7.79385 5.87016 7.46347 6.95443L7.46344 6.95442L7.46179 6.96005C7.18252 7.91286 7.90022 8.8835 8.89583 8.8835H9.10417C9.80944 8.8835 10.3257 8.38986 10.5334 7.85576L10.536 7.84916L10.5384 7.8425C10.7852 7.15597 11.5067 6.69276 12.3028 6.86117L12.3045 6.86152C13.0291 7.01247 13.5727 7.74738 13.5044 8.49153L13.5042 8.49323C13.4675 8.90707 13.2354 9.19446 12.7806 9.56672C12.6905 9.64043 12.589 9.71881 12.4804 9.80274C12.1182 10.0824 11.6761 10.4239 11.3101 10.8602L11.2361 10.9342C11.1969 10.9733 11.1687 11.0112 11.1502 11.038C11.1318 11.0647 11.1173 11.0892 11.1093 11.1028C11.1039 11.1119 11.1011 11.1168 11.0991 11.1202C11.0977 11.1226 11.0967 11.1243 11.0957 11.1261L11.0846 11.1408L11.07 11.1651C11.0661 11.1716 11.0595 11.1816 11.039 11.2108L11.0363 11.2147C11.0208 11.2368 10.9953 11.2732 10.9709 11.3131C10.8628 11.4821 10.7769 11.6526 10.7042 11.8411C10.6921 11.8608 10.6763 11.8889 10.661 11.9233C10.6331 11.9775 10.6171 12.0295 10.6079 12.0736C10.4734 12.4941 10.3875 12.9846 10.3875 13.5522V14.1022H10.9375H13.0313H13.5813V13.5522C13.5813 13.3373 13.6068 13.1689 13.6572 13.0178L13.661 13.0065L13.6643 12.995C13.6738 12.9616 13.6903 12.9212 13.7243 12.8418L13.7416 12.8013L13.7523 12.7586L13.7533 12.7546C13.7811 12.6993 13.8183 12.639 13.8727 12.5521ZM13.8909 12.5176C13.8882 12.5219 13.8849 12.5268 13.8812 12.5322C13.8781 12.5366 13.8739 12.5425 13.8685 12.5495C13.8585 12.5625 13.8445 12.5793 13.8264 12.5974L13.6285 12.3995L13.5729 12.3439L13.4375 12.2085L13.8099 12.4624L13.8909 12.5176ZM10.723 11.812C10.7279 11.8039 10.7294 11.8025 10.7247 11.8097C10.7243 11.8102 10.7238 11.811 10.7231 11.812L10.723 11.812Z" stroke="black" stroke-width="1.1"/>
</g>
<defs>
<clipPath id="clip0_2613_5860">
<rect width="25" height="25" fill="white"/>
</clipPath>
</defs>
</svg>
